<svg xmlns="http://www.w3.org/2000/svg" width="241" height="54" viewBox="0 0 241 54" fill="none"><g id="denova logotype k" clip-path="url(#clip0_2427_3033)"><path id="Vector" d="M135.746 32.6304L127.867 30.4864C127.665 30.4322 127.572 30.1402 127.649 29.8357L128.232 27.6292C128.315 27.3247 128.54 27.1202 128.742 27.1745L136.621 29.3185C136.823 29.3727 136.917 29.6647 136.839 29.9692L136.256 32.1758C136.173 32.4802 135.948 32.6846 135.746 32.6304Z" fill="#F7D95B"></path><path id="Vector_2" d="M137.139 28.3048L130.891 22.9823C130.73 22.8489 130.763 22.5402 130.964 22.3024L132.411 20.5548C132.612 20.3128 132.899 20.2253 133.059 20.3628L139.308 25.6853C139.468 25.8188 139.435 26.1274 139.234 26.3652L137.787 28.1129C137.587 28.3548 137.299 28.4424 137.139 28.3048Z" fill="#F7D95B"></path><path id="Vector_3" d="M140.207 24.9802L136.76 17.4764C136.674 17.2845 136.83 17.0217 137.114 16.8882L139.152 15.9247C139.435 15.7912 139.731 15.8371 139.821 16.029L143.268 23.5329C143.354 23.7248 143.198 23.9875 142.914 24.121L140.877 25.0846C140.594 25.218 140.297 25.1722 140.207 24.9802Z" fill="#F7D95B"></path><path id="Vector_4" d="M144.369 23.2868V15.0071C144.369 14.7985 144.619 14.6274 144.932 14.6274H147.183C147.496 14.6274 147.746 14.7985 147.746 15.0071V23.2868C147.746 23.4953 147.496 23.6664 147.183 23.6664H144.932C144.619 23.6664 144.369 23.4953 144.369 23.2868Z" fill="#F7D95B"></path><path id="Vector_5" d="M148.847 23.5329L152.294 16.029C152.38 15.8371 152.68 15.7912 152.963 15.9247L155.001 16.8882C155.284 17.0217 155.44 17.2845 155.353 17.4764L151.907 24.9802C151.821 25.1722 151.521 25.218 151.237 25.0846L149.2 24.121C148.916 23.9875 148.761 23.7248 148.847 23.5329Z" fill="#F7D95B"></path><path id="Vector_6" d="M152.802 25.6812L159.051 20.3588C159.211 20.2254 159.498 20.3088 159.7 20.5507L161.146 22.2984C161.347 22.5403 161.38 22.8448 161.219 22.9783L154.972 28.3007C154.811 28.4342 154.524 28.3508 154.322 28.1089L152.877 26.3611C152.675 26.1192 152.642 25.8147 152.802 25.6812Z" fill="#F7D95B"></path><path id="Vector_7" d="M155.493 29.3226L163.373 27.1787C163.574 27.1244 163.8 27.3288 163.881 27.6333L164.466 29.8398C164.548 30.1444 164.448 30.4363 164.248 30.4905L156.369 32.6345C156.167 32.6888 155.941 32.4844 155.859 32.1798L155.276 29.9733C155.194 29.6688 155.292 29.3768 155.493 29.3226Z" fill="#F7D95B"></path><path id="Union" fill-rule="evenodd" clip-rule="evenodd" d="M27.7053 46.8248V51.3964H37.1537V1.40918H27.7053V19.8457C24.8995 16.1709 20.9148 14.298 16.7082 14.298C7.62942 14.298 0.912842 21.268 0.912842 33.3352C0.912842 45.4024 7.70337 52.2974 16.7082 52.2974C20.9887 52.2974 24.8995 50.3452 27.7053 46.8248ZM19.5879 22.7697C22.7592 22.7697 26.0826 24.4924 27.7053 26.8909V39.7046C26.0826 42.103 22.7633 43.8257 19.5879 43.8257C14.2721 43.8257 10.5831 39.6295 10.5831 33.3352C10.5831 27.0409 14.2721 22.7697 19.5879 22.7697ZM136.218 34.0278C136.211 33.8234 136.046 33.6607 135.844 33.6607H135.837H127.678C127.468 33.6607 127.3 33.836 127.304 34.0487C127.509 44.3806 135.82 52.6896 146.049 52.6896C156.278 52.6896 164.588 44.3806 164.794 34.0487C164.798 33.836 164.629 33.6607 164.42 33.6607H156.262C156.06 33.6607 155.896 33.8234 155.888 34.0278C155.698 39.3752 151.365 43.6507 146.053 43.6507C140.741 43.6507 136.411 39.3752 136.218 34.0278ZM62.6192 14.2981C73.2467 14.2981 80.4809 22.3901 80.4809 34.232V36.3302H53.9842C54.5758 40.9017 58.1909 44.7225 64.2419 44.7225C67.5612 44.7225 71.4762 43.3752 73.7643 41.127L77.897 47.2711C74.282 50.6455 68.7443 52.2932 63.2108 52.2932C52.3616 52.2932 44.1702 44.8727 44.1702 33.256C44.1702 22.7655 51.7741 14.2939 62.6233 14.2939L62.6192 14.2981ZM53.8364 29.8857H71.4022C71.1803 26.4403 68.8183 21.8687 62.6192 21.8687C56.79 21.8687 54.28 26.2902 53.8364 29.8857ZM111.332 29.5144V51.3964H120.706V25.8397C120.706 18.7945 116.94 14.298 109.118 14.298C103.289 14.298 98.9341 17.147 96.646 19.9208V15.199H87.2715V51.3964H96.646V27.041C98.195 24.8677 101.074 22.7697 104.763 22.7697C108.748 22.7697 111.332 24.4924 111.332 29.5144ZM181.184 51.3966L166.865 15.1992H176.9L186.2 40.3805L195.501 15.1992H205.611L191.29 51.3966H181.184ZM231.225 47.6506V51.3964L231.229 51.4005H240.603V28.0169C240.603 17.6016 233.147 14.3022 225.03 14.3022C219.422 14.3022 213.811 16.1 209.456 19.9958L212.997 26.3652C216.021 23.5163 219.566 22.0939 223.402 22.0939C228.123 22.0939 231.225 24.4923 231.225 28.163V33.185C228.862 30.261 224.656 28.7636 219.931 28.7636C214.25 28.7636 207.534 32.209 207.534 40.3052C207.534 48.4014 214.25 52.2973 219.931 52.2973C224.582 52.2973 228.788 50.5746 231.225 47.6506ZM223.695 35.0579C226.722 35.0579 229.676 36.109 231.225 38.2071V42.7036C229.672 44.8017 226.722 45.8529 223.695 45.8529C220.005 45.8529 216.978 43.98 216.978 40.5304C216.978 37.0809 220.005 35.0579 223.695 35.0579Z" fill="#7B7B7B"></path></g><defs><clipPath id="clip0_2427_3033"><rect width="240" height="52.4272" fill="white" transform="translate(0.695801 0.786377)"></rect></clipPath></defs></svg>