<?xml version="1.0" encoding="UTF-8"?>
<svg id="Quantcast_Lockup" data-name="Quantcast Lockup" xmlns="http://www.w3.org/2000/svg" viewBox="0 0 1630.9719 250">
  <defs>
    <style>
      .cls-1 {
        fill: #000;
        stroke-width: 0px;
      }
    </style>
  </defs>
  <path class="cls-1" d="M1598.9819,101.3224v68.7657c0,12.3426,6.0455,19.3956,18.388,19.3956h13.602v33.2494h-24.9371c-26.1963,0-48.3628-16.8767-48.3628-50.1261v-71.2846h-22.166v-33.2494h22.166v-32.2418h41.3099v32.2418h31.99v33.2494h-31.99ZM1446.5893,111.6498c0-9.3199,7.5565-15.1133,19.6472-15.1133s18.8916,5.7934,22.418,18.6398h39.7986c-4.2821-30.9824-27.7079-49.3703-62.2166-49.3703-36.0203,0-59.9497,19.6474-59.9497,49.3703,0,55.6676,83.879,35.7683,83.879,63.476,0,9.5718-8.0604,15.6172-20.9067,15.6172-13.602,0-22.9219-8.5642-24.6853-22.9219h-39.7983c2.0152,32.7455,26.9519,53.6524,64.4836,53.6524,36.7757,0,60.7053-19.6474,60.7053-49.8741,0-58.4382-83.3752-35.7681-83.3752-63.476ZM1391.9291,127.7707v94.9623h-41.0578v-20.1512c-7.3047,13.0983-25.6927,22.4182-44.5843,22.4182-33.5016,0-54.1563-17.1285-54.1563-45.3401,0-29.471,22.166-46.3475,65.9949-50.6296l32.7457-3.0228v-3.0226c0-15.8691-10.8315-25.9447-28.2118-25.9447-18.388,0-27.9597,9.0681-30.7305,27.7079h-39.7983c5.0375-37.7834,32.2415-58.9421,70.5288-58.9421,42.3176,0,69.2696,24.1814,69.2696,61.9647ZM1350.8713,152.7078l-32.4939,3.0226c-15.3654,1.2595-25.1889,9.5718-25.1889,20.9069,0,10.3275,8.8163,17.6322,21.1585,17.6322,22.4183,0,36.0203-15.6172,36.5242-41.5617ZM1169.2592,101.0704c15.869,0,28.7153,9.5718,31.4861,23.6777h41.5617c-3.5265-35.2645-32.7457-58.9421-73.0478-58.9421-47.1033,0-79.5972,32.9974-79.5972,79.5969s32.4939,79.5971,79.5972,79.5971c40.3022,0,69.5214-23.6776,73.0478-58.9421h-41.5617c-2.7708,14.1059-15.6172,23.6776-31.4861,23.6776-22.4183,0-38.0355-18.1359-38.0355-44.3325s15.6172-44.3325,38.0355-44.3325ZM1055.6571,35.8312h-41.3099v32.2418h-22.1663v33.2494h22.1663v71.2846c0,33.2494,22.1663,50.1261,48.3628,50.1261h24.9371v-33.2494h-13.6023c-12.3422,0-18.3877-7.0529-18.3877-19.3956v-68.7657h31.99v-33.2494h-31.99v-32.2418ZM927.1936,65.806c-20.655,0-39.7985,8.5642-49.1183,22.4182v-20.1512h-41.3099s0,154.66,0,154.66h41.3099v-67.2544c0-34.005,13.3501-53.4005,36.7757-53.4005,17.3804,0,28.7155,12.3425,28.7155,30.7305v89.9244h41.3098v-99.2444c0-34.7607-22.9219-57.6826-57.6826-57.6826ZM819.1332,127.7707v94.9623h-41.058v-20.1512c-7.3047,13.0983-25.6927,22.4182-44.5844,22.4182-33.5012,0-54.1561-17.1285-54.1561-45.3401,0-29.471,22.1663-46.3475,65.995-50.6296l32.7455-3.0228v-3.0226c0-15.8691-10.8312-25.9447-28.2116-25.9447-18.3879,0-27.9597,9.0681-30.7305,27.7079h-39.7985c5.0378-37.7834,32.2418-58.9421,70.5289-58.9421,42.3173,0,69.2696,24.1814,69.2696,61.9647ZM778.0752,152.7078l-32.4937,3.0226c-15.3652,1.2595-25.1889,9.5718-25.1889,20.9069,0,10.3275,8.816,17.6322,21.1587,17.6322,22.4182,0,36.0202-15.6172,36.5239-41.5617ZM622.9116,135.3274c0,34.005-13.3502,53.4006-36.7758,53.4006-17.3804,0-28.7155-12.3426-28.7155-30.7305v-89.9245h-41.3098v99.2444c0,34.7607,22.9219,57.6826,57.6826,57.6826,20.655,0,39.7985-8.5642,49.1185-22.4182v20.1512h41.3098V68.073h-41.3098v67.2544ZM482.1055,184.9496l27.204,37.7834h-44.5844l-9.3199-13.0983c-15.869,9.8236-34.7607,15.3652-54.9118,15.3652-55.1637,0-100.5038-40.5541-100.5038-100.0001s45.3401-99.9999,100.5038-99.9999,100.5038,40.5541,100.5038,99.9999c0,23.4258-7.0529,43.8288-18.8917,59.9497ZM455.2247,147.1671c1.9734-6.9811,3.2032-14.4511,3.2032-22.1672,0-35.2644-22.6701-64.2317-57.9345-64.2317s-57.9345,28.9673-57.9345,64.2317,22.67,64.2318,57.9345,64.2318c12.5944,0,23.6776-3.7784,32.7455-10.3275l-22.9219-31.7381,44.9077.0009ZM3.5984,107.6281c15.0729,6.1447,30.5447,9.1985,45.8813,9.1985,20.4547-.0022,40.6674-5.4363,59.3434-16.2173,32.7637-18.9114,53.6412-50.0098,58.7854-87.5906.3248-2.6048-.7019-4.6101-2.9688-5.8003l-.2964-.1308C146.5021.81,127.7498-1.398,108.3.8667l-.3226.0589c-2.9034.558-4.6385,2.668-4.6363,5.5605-.6496,17.5207-9.9047,33.0666-24.7662,41.5938-14.8091,8.5991-32.901,8.8519-48.3335.7062-2.7748-1.5847-5.6913-1.0027-7.6247,1.5498C11.3583,65.4262,3.5592,83.1911.0454,101.854c-.3095,2.5656.9722,4.6646,3.553,5.7741ZM167.6063,237.0088c.449,3.5944-1.4909,5.1834-3.1955,5.8875-13.4512,4.7279-27.3928,7.1038-41.548,7.1038-4.7388,0-9.6955-.3008-14.7285-.8915-3.1214-.6539-4.7954-2.692-4.7954-5.6237-.6539-17.5774-9.9026-33.1211-24.74-41.4979-14.7111-8.6819-32.7985-8.9282-48.4251-.6823-2.607,1.4909-5.3229,1.0005-7.3828-1.3972C11.3888,184.6667,3.5635,166.8538.065,148.2781c-.2572-2.7269,1.0267-4.778,3.4963-5.8373,35.3052-14.3906,72.7575-11.8992,105.4994,7.0035,32.598,18.8155,53.3905,49.9138,58.5456,87.5645ZM249.9896,177.491v65.5186c0,1.7765-.6692,3.2522-1.8833,4.1568-.8174.606-1.8266.9155-2.947.9155-.6605,0-1.358-.1068-2.0773-.3226-63.086-20.871-91.791-78.2483-91.791-122.7324,0-37.631,16.5791-71.2208,46.6813-94.5832,2.1841-1.8244,4.0914-1.5629,5.4602-.8109h.2093l.6278.5384c14.504,12.4616,26.122,28.3214,33.6029,45.8639,1.1138,2.9797.3095,5.288-2.2909,6.7746-14.5062,9.0416-23.563,25.6904-23.563,43.4051,0,7.3457,2.45,32.3255,33.9843,45.4149l.0218.0109c3.2761,1.4038,3.9649,3.9562,3.9649,5.8504Z"/>
</svg>